<svg width="45" height="45" viewBox="0 0 45 45" fill="none" xmlns="http://www.w3.org/2000/svg">
<path d="M30.9375 16.875C30.9375 21.5349 27.1599 25.3125 22.5 25.3125C17.8401 25.3125 14.0625 21.5349 14.0625 16.875C14.0625 12.2151 17.8401 8.4375 22.5 8.4375C27.1599 8.4375 30.9375 12.2151 30.9375 16.875Z" fill="black"/>
<path fill-rule="evenodd" clip-rule="evenodd" d="M0 22.5C0 10.0736 10.0736 0 22.5 0C34.9264 0 45 10.0736 45 22.5C45 34.9264 34.9264 45 22.5 45C10.0736 45 0 34.9264 0 22.5ZM22.5 2.8125C11.6269 2.8125 2.8125 11.6269 2.8125 22.5C2.8125 27.1503 4.42478 31.424 7.12086 34.7926C9.12074 31.571 13.513 28.125 22.5 28.125C31.487 28.125 35.8793 31.571 37.8792 34.7926C40.5752 31.424 42.1875 27.1503 42.1875 22.5C42.1875 11.6269 33.3731 2.8125 22.5 2.8125Z" fill="black"/>
</svg>
